<svg xmlns="http://www.w3.org/2000/svg" width="50" height="50" viewBox="0 0 50 50" style="fill: rgb(149, 165, 166);">
    <path style="text-indent:0;text-align:start;line-height:normal;text-transform:none;block-progression:tb;-inkscape-font-specification:Bitstream Vera Sans" d="M 0 4 L 0 5 L 0 45 L 0 46 L 1 46 L 49 46 L 50 46 L 50 45 L 50 5 L 50 4 L 49 4 L 1 4 L 0 4 z M 2 6 L 48 6 L 48 44 L 2 44 L 2 6 z M 4 8 L 4 9 L 4 30.78125 A 1.0174263 1.0174263 0 0 0 4 31.1875 L 4 41 L 4 42 L 5 42 L 45 42 L 46 42 L 46 41 L 46 37.15625 A 1.016466 1.016466 0 0 0 46 36.75 L 46 9 L 46 8 L 45 8 L 5 8 L 4 8 z M 6 10 L 44 10 L 44 34.5625 L 34.71875 25.28125 A 1.0001 1.0001 0 0 0 33.875 25 A 1.0001 1.0001 0 0 0 33.28125 25.28125 L 29.03125 29.53125 L 18.75 18.3125 A 1.0001 1.0001 0 0 0 17.84375 18 A 1.0001 1.0001 0 0 0 17.3125 18.25 L 6 28.6875 L 6 10 z M 35 15 C 33.343146 15 32 16.343146 32 18 C 32 19.656854 33.343146 21 35 21 C 36.656854 21 38 19.656854 38 18 C 38 16.343146 36.656854 15 35 15 z M 17.9375 20.4375 L 27.59375 30.96875 L 25.28125 33.28125 A 1.016466 1.016466 0 1 0 26.71875 34.71875 L 29.5625 31.84375 A 1.0174263 1.0174263 0 0 0 29.90625 31.5 L 34 27.4375 L 44 37.4375 L 44 40 L 6 40 L 6 31.46875 L 17.9375 20.4375 z" color="#000" overflow="visible" enable-background="accumulate" font-family="Bitstream Vera Sans"/>
</svg>